Coordinates
version=1
nRows=29
nColumns=24
inDegrees=yes

Units are S.I. units (second, meters, Newtons, ...)
Angles are in degrees.

endheader
time	pelvis_tilt	pelvis_list	pelvis_rotation	pelvis_tx	pelvis_ty	pelvis_tz	hip_flexion_r	hip_adduction_r	hip_rotation_r	knee_angle_r	ankle_angle_r	subtalar_angle_r	mtp_angle_r	hip_flexion_l	hip_adduction_l	hip_rotation_l	knee_angle_l	ankle_angle_l	subtalar_angle_l	mtp_angle_l	lumbar_extension	lumbar_bending	lumbar_rotation
      5.23000000	     -3.78298551	     -4.85566697	      6.94237530	      2.41622944	      0.70575372	     -0.35006283	      4.99052699	     11.16810941	     18.42510930	     -4.01567386	      8.89946370	    -16.81108166	      0.00000000	     29.56895009	     -0.93215069	      0.73273260	    -67.64853260	     -6.98477170	    -24.06743079	      0.00000000	    -15.80216228	      6.31321826	     -6.52451425
      5.24000000	     -4.02304079	     -4.31331652	      6.22538033	      2.42729109	      0.70627995	     -0.34995069	      3.53768875	     10.46406863	     19.63411132	     -2.87804570	      8.98443545	    -17.00406173	      0.00000000	     31.09704055	     -0.44360062	      0.65499404	    -66.19424496	     -6.08142397	    -25.33857389	      0.00000000	    -15.87678185	      5.32488758	     -5.59025168
      5.25000000	     -4.22592528	     -3.87170372	      5.43714005	      2.43818933	      0.70647271	     -0.34984090	      2.24545509	      9.88290854	     20.67640425	     -2.02326423	      9.25853962	    -16.96105582	      0.00000000	     32.47668656	     -0.13631166	      0.59171921	    -64.41450322	     -5.29905828	    -26.25734158	      0.00000000	    -16.05197637	      4.50779228	     -4.63509638
      5.26000000	     -4.24467054	     -3.50474638	      4.64458459	      2.44902516	      0.70653195	     -0.34978584	      0.86983021	      9.39005110	     21.77450216	     -1.32536355	      9.56261454	    -17.05235687	      0.00000000	     33.50761842	      0.04831773	      0.61020766	    -62.26432777	     -4.64099383	    -26.89136126	      0.00000000	    -16.48453848	      3.81968511	     -3.73520167
      5.27000000	     -4.43077916	     -3.33755564	      3.76730868	      2.45974599	      0.70603384	     -0.34967092	     -0.10531933	      9.14099940	     22.64782483	     -0.98445464	     10.13773246	    -16.76039268	      0.00000000	     34.60685040	     -0.01434037	      0.72351291	    -59.81602151	     -3.92443205	    -27.05674781	      0.00000000	    -16.70959621	      3.35764027	     -2.78096748
      5.28000000	     -4.44778920	     -3.26743102	      2.84704815	      2.47042054	      0.70551992	     -0.34966996	     -1.16912507	      8.99870191	     23.56961203	     -0.80544883	     10.72637396	    -16.50101591	      0.00000000	     35.31922380	     -0.19972222	      0.94667068	    -56.95515933	     -3.25694207	    -26.93020722	      0.00000000	    -17.18066246	      3.08750989	     -1.82245746
      5.29000000	     -4.33471448	     -3.26047825	      2.00368402	      2.48111005	      0.70491530	     -0.34982543	     -2.33044397	      8.91303904	     24.48870765	     -0.70589167	     11.36366686	    -16.36097922	      0.00000000	     35.67757176	     -0.40116849	      1.38108852	    -53.67729244	     -2.55013877	    -26.51964482	      0.00000000	    -17.82823926	      2.91536936	     -1.03186001
      5.30000000	     -4.44872496	     -3.31780432	      1.20378803	      2.49193386	      0.70389671	     -0.35010368	     -3.22563782	      8.86674913	     25.33889387	     -0.66763736	     11.99346675	    -16.17423403	      0.00000000	     36.03421266	     -0.61974413	      2.01113137	    -49.94987446	     -1.92356925	    -25.93165057	      0.00000000	    -18.13501161	      2.84124400	     -0.42386765
      5.31000000	     -4.31632231	     -3.44306985	      0.37135415	      2.50287982	      0.70306667	     -0.35040439	     -4.41158339	      8.86642996	     26.13677045	     -0.60896460	     12.55012677	    -15.98373416	      0.00000000	     35.82391908	     -0.96749850	      2.68962144	    -45.73255992	     -1.16891226	    -25.21831217	      0.00000000	    -18.74274714	      2.87176367	      0.20738274
      5.32000000	     -4.27883735	     -3.57535462	     -0.29578039	      2.51397464	      0.70203444	     -0.35087273	     -5.51396834	      8.84480869	     26.83281346	     -0.54471258	     13.10723602	    -15.78641501	      0.00000000	     35.42237991	     -1.21835163	      3.73465351	    -41.02507917	     -0.66738414	    -24.58112895	      0.00000000	    -19.17623563	      2.90832606	      0.57244738
      5.33000000	     -3.98014193	     -3.71879307	     -0.94742309	      2.52533848	      0.70130528	     -0.35145738	     -6.97558878	      8.76656248	     27.39087218	     -0.37260587	     13.53615053	    -15.42369795	      0.00000000	     34.35435988	     -1.53697672	      4.80504454	    -35.73031037	     -0.28628751	    -24.29659237	      0.00000000	    -19.90712345	      2.99521567	      0.98937486
      5.34000000	     -3.84760252	     -3.93297443	     -1.52058467	      2.53695829	      0.70027815	     -0.35204273	     -8.26009927	      8.75792814	     27.84247664	     -0.25501558	     13.96055708	    -14.96381914	      0.00000000	     33.14717111	     -1.93579307	      6.19041005	    -29.98766066	     -0.24292092	    -24.37273768	      0.00000000	    -20.32927158	      3.13509584	      1.29897246
      5.35000000	     -3.75011584	     -4.26417773	     -2.09833855	      2.54887026	      0.69910813	     -0.35251406	     -9.50437388	      8.87331220	     28.17064317	     -0.21702328	     14.33854248	    -14.33292583	      0.00000000	     31.68197670	     -2.56928505	      7.70810276	    -23.89122631	     -0.42232809	    -24.76849586	      0.00000000	    -20.63345164	      3.37260304	      1.69318240
      5.36000000	     -3.67193848	     -4.70310675	     -2.65650813	      2.56121405	      0.69777565	     -0.35286270	    -10.74141675	      9.09749316	     28.43525970	     -0.26045744	     14.73982778	    -13.44431877	      0.00000000	     30.01139946	     -3.44093617	      9.25388488	    -17.62113989	     -0.83575955	    -25.42465299	      0.00000000	    -20.79534098	      3.69082232	      2.07150642
      5.37000000	     -3.71036854	     -5.36490840	     -3.29333308	      2.57383965	      0.69618406	     -0.35290953	    -11.78955983	      9.60136963	     28.65292284	     -0.54868740	     15.04755932	    -12.45252299	      0.00000000	     28.40294073	     -4.71285054	     10.34116899	    -11.52698796	     -1.18523409	    -25.86445808	      0.00000000	    -20.74957855	      4.19849942	      2.71541791
      5.38000000	     -3.70229432	     -6.19358812	     -3.76618173	      2.58679250	      0.69450888	     -0.35314973	    -12.83398883	     10.31714032	     28.53912658	     -1.04223279	     15.44481694	    -11.02220477	      0.00000000	     26.82428134	     -6.09262266	     10.98024979	     -5.96558428	     -1.21697535	    -25.72374394	      0.00000000	    -20.69386929	      4.94175701	      3.20656958
      5.39000000	     -3.89710370	     -6.97126569	     -4.41704259	      2.60008592	      0.69277891	     -0.35317297	    -13.57867844	     10.97427322	     28.70471167	     -1.78507815	     15.64714563	     -9.79060966	      0.00000000	     25.53002642	     -7.41508815	     10.63576625	     -1.18176561	     -0.70147010	    -24.61033318	      0.00000000	    -20.32052858	      5.56549093	      3.95217182
      5.40000000	     -3.87664655	     -7.68016290	     -4.84094881	      2.61366289	      0.69150486	     -0.35372100	    -14.39041781	     11.59894898	     28.03242787	     -2.83705567	     16.08527737	     -7.63369033	      0.00000000	     24.22891352	     -8.35211653	      9.86204266	      2.56224184	      0.46564749	    -22.62648706	      0.00000000	    -20.18381017	      6.20868974	      4.43375350
      5.41000000	     -3.95421158	     -8.18543905	     -5.30599368	      2.62753739	      0.69046374	     -0.35436530	    -14.90943625	     12.02723713	     27.22194116	     -4.22476590	     16.45000213	     -5.35111927	      0.00000000	     23.13816696	     -8.94363546	      9.24003008	      5.31831480	      1.54444355	    -21.05563667	      0.00000000	    -19.85860578	      6.63271197	      4.91843572
      5.42000000	     -4.01991678	     -8.47415882	     -5.82188130	      2.64169538	      0.68981419	     -0.35505486	    -15.24040345	     12.22753973	     26.27708105	     -5.93891183	     16.69202747	     -2.95582637	      0.00000000	     22.11459070	     -9.22577707	      8.93758267	      7.14825420	      2.33427675	    -20.34061756	      0.00000000	    -19.48626946	      6.81248171	      5.39678206
      5.43000000	     -4.06373904	     -8.61221536	     -6.07109943	      2.65598245	      0.68943693	     -0.35619470	    -15.22938698	     12.36386942	     24.21919488	     -8.16948652	     16.96529463	      0.24931994	      0.00000000	     21.37918496	     -9.15482072	      9.27308391	      7.86619759	      3.05560721	    -20.24113087	      0.00000000	    -19.09536255	      6.90647573	      5.47192110
      5.44000000	     -4.16991250	     -8.57013769	     -6.38374855	      2.67037741	      0.68930636	     -0.35730140	    -14.86382190	     12.29450868	     22.14163985	    -10.81140778	     16.90721512	      3.35197603	      0.00000000	     20.82850510	     -8.88254154	      9.91779005	      7.79246479	      3.36772017	    -20.89584771	      0.00000000	    -18.59448596	      6.79223136	      5.53870702
      5.45000000	     -4.44688339	     -8.25842191	     -6.60399158	      2.68503125	      0.68916040	     -0.35871516	    -13.99253422	     11.93031716	     19.56117469	    -13.84004050	     16.52598893	      6.50258409	      0.00000000	     20.68977324	     -8.20785809	     10.77018897	      6.93120098	      3.25992294	    -22.24908844	      0.00000000	    -17.75544870	      6.46536703	      5.47584561
      5.46000000	     -4.36827563	     -7.67969419	     -6.79518828	      2.70002121	      0.68963463	     -0.36023662	    -13.26170832	     11.14592367	     17.00058202	    -17.12404193	     15.57689775	      9.42327792	      0.00000000	     20.19021783	     -7.16379666	     11.34526783	      5.73200657	      2.84446418	    -23.66156577	      0.00000000	    -17.24582217	      5.79249769	      5.15821185
      5.47000000	     -4.70237359	     -7.11689386	     -6.88385876	      2.71468263	      0.68973831	     -0.36196889	    -11.70947176	     10.40691735	     14.47012569	    -20.86934764	     13.95048235	     12.02299378	      0.00000000	     20.36423561	     -6.12937321	     12.52124988	      4.08442067	      1.58813501	    -25.80567322	      0.00000000	    -16.30286050	      5.25112139	      4.84953382
      5.48000000	     -4.70576894	     -6.23779324	     -6.94448034	      2.72970724	      0.69032661	     -0.36372736	    -10.28225454	      9.20264268	     12.09970207	    -24.79528325	     11.68600059	     14.13754534	      0.00000000	     20.18078875	     -4.69979976	     13.19272210	      2.35819288	      0.27978636	    -27.62169898	      0.00000000	    -15.62616675	      4.27333246	      4.37672047
      5.49000000	     -4.62866794	     -5.21716830	     -6.92722940	      2.74460024	      0.69112696	     -0.36556422	     -8.66045824	      7.80349152	     10.02319275	    -28.94434878	      8.71735413	     15.77568045	      0.00000000	     20.02109882	     -3.08599054	     13.61817320	      0.48364191	     -1.13842165	    -29.01053875	      0.00000000	    -15.08411509	      3.10970888	      3.86070468
      5.50000000	     -4.17722060	     -4.08302729	     -6.91194419	      2.75946786	      0.69248161	     -0.36729209	     -7.22300649	      6.20549405	      8.29621931	    -33.18089159	      5.04346406	     16.86790487	      0.00000000	     19.45962976	     -1.34645990	     13.43813118	     -1.36145383	     -2.07436918	    -29.36809931	      0.00000000	    -15.03070240	      1.72201397	      3.35179305
      5.51000000	     -4.02243684	     -3.00704588	     -6.88137098	      2.77380874	      0.69338234	     -0.36916510	     -5.13193941	      4.69181649	      6.85686778	    -37.67672929	      1.04759017	     17.76865533	      0.00000000	     19.31482621	      0.28938702	     13.45487495	     -3.29682845	     -3.05389501	    -29.81941676	      0.00000000	    -14.75658276	      0.49153823	      2.84262624
